<?xml version="1.0" encoding="UTF-8"?>
<svg height="16" width="16" viewBox="0 0 16 16" xmlns="http://www.w3.org/2000/svg">
    <path d="M 8 0 C 7.171875 0 6.5 0.671875 6.5 1.5 C 6.5 1.574219 6.507812 1.648438 6.519531 1.726562 C 4.429688 2.375 3.003906 4.308594 3 6.5 V 11 H 2.5 C 1.945312 11 1.5 11.445312 1.5 12 C 1.5 12.554688 1.945312 13 2.5 13 H 13.5 C 14.054688 13 14.5 12.554688 14.5 12 C 14.5 11.445312 14.054688 11 13.5 11 H 13 V 6.5 C 12.996094 4.308594 11.570312 2.375 9.480469 1.726562 C 9.492188 1.648438 9.5 1.574219 9.5 1.5 C 9.5 0.671875 8.828125 0 8 0 Z M 8 3.5 C 9.65625 3.5 11 4.84375 11 6.5 V 11 H 5 V 6.5 C 5 4.84375 6.34375 3.5 8 3.5 Z M 6 14 C 6 14.714844 6.382812 15.375 7 15.730469 C 7.617188 16.089844 8.382812 16.089844 9 15.730469 C 9.617188 15.375 10 14.714844 10 14 Z M 6 14" fill="#222222"/>
</svg>
