<?xml version="1.0" encoding="UTF-8"?>
<!--
  Symbolic icon — single colour, no fills other than currentColor.
  GTK recolours this automatically to match the theme.
-->
<svg xmlns="http://www.w3.org/2000/svg" viewBox="0 0 16 16" width="16" height="16">
  <!-- Back bubble -->
  <path d="M9 1 C6.8 1 5 2.6 5 4.5 L5 5 C5 5 5 5 5.1 5 C5.6 3.3 7.1 2 9 2 L13 2 C14.1 2 15 2.9 15 4 L15 8 C15 9.1 14.1 10 13 10 L12.5 10 L12.5 11.5 L11 10 L9 10 C8.5 10 8 9.8 7.6 9.5 C7.8 9.8 8 10.4 8 11 C8 13.2 6.2 15 4 15 L3.5 15 L2 16.5 L2 15 C0.9 15 0 14.1 0 13 L0 9 C0 6.8 1.8 5 4 5 L4.5 5 C4.5 2.8 6.5 1 9 1 Z"
        fill="currentColor" opacity="0.4"/>
  <!-- Front bubble -->
  <path d="M4 6 C2.3 6 1 7.3 1 9 L1 13 C1 13.6 1.4 14 2 14 L2 15.5 L3.5 14 L6 14 C6 14 6 14 6 14 L4 14 C4 14 3.5 14 3.5 13.5 L3.5 13 L2 13 L2 9 C2 7.9 2.9 7 4 7 L8 7 C9.1 7 10 7.9 10 9 L10 13 C10 14.1 9.1 15 8 15 L6 15 L4 16.5 L4 15 C2.9 15 2 14.1 2 13"
        fill="currentColor" opacity="0.0"/>
  <path d="M8 6 C9.7 6 11 7.3 11 9 L11 13 C11 14.7 9.7 16 8 16 L5.5 16 L4 17.5 L4 16 C2.3 16 1 14.7 1 13 L1 9 C1 7.3 2.3 6 4 6 Z"
        fill="currentColor"/>
  <!-- Three dots -->
  <circle cx="3.5" cy="11" r="1" fill="none" style="fill: var(--symbolic-bg, white)"/>
  <circle cx="6" cy="11" r="1" fill="none" style="fill: var(--symbolic-bg, white)"/>
  <circle cx="8.5" cy="11" r="1" fill="none" style="fill: var(--symbolic-bg, white)"/>
</svg>
